<?xml version="1.0" encoding="UTF-8"?>
<svg xmlns="http://www.w3.org/2000/svg" viewBox="245 38 215 275">
  <defs>
    <style>
      .cls-1 {
        letter-spacing: -.03em;
      }

      .cls-1, .cls-2, .cls-3, .cls-4, .cls-5, .cls-6, .cls-7, .cls-8, .cls-9 {
        fill: #1e1e1e;
      }

      .cls-1, .cls-2, .cls-10, .cls-6 {
        font-family: Aleo-Bold, Aleo;
        font-weight: 700;
      }

      .cls-1, .cls-2, .cls-6 {
        font-size: 21.78px;
      }

      .cls-11 {
        letter-spacing: -.01em;
      }

      .cls-12 {
        fill: #f5a22c;
      }

      .cls-2 {
        letter-spacing: 0em;
      }

      .cls-13 {
        fill: none;
      }

      .cls-13, .cls-7 {
        stroke: #1e1e1e;
        stroke-miterlimit: 10;
        stroke-width: 12px;
      }

      .cls-14 {
        fill: #1f1f1f;
      }

      .cls-3 {
        font-family: Roboto-CondensedMedium, 'Roboto CondensedMedium';
        font-size: 26.4px;
        font-variation-settings: ';
        font-weight: 500;
      }

      .cls-15 {
        fill: #fffefa;
      }

      .cls-16 {
        letter-spacing: -.03em;
      }

      .cls-17 {
        letter-spacing: 0em;
      }

      .cls-10 {
        letter-spacing: 0em;
      }

      .cls-10, .cls-18 {
        fill: #dd473d;
      }

      .cls-10, .cls-5, .cls-8, .cls-9 {
        font-size: 55.98px;
      }

      .cls-5, .cls-8, .cls-9 {
        font-family: Aleo-Regular, Aleo;
      }

      .cls-6 {
        letter-spacing: -.02em;
      }

      .cls-19 {
        fill: #2c2c2c;
      }

      .cls-8 {
        letter-spacing: -.03em;
      }

      .cls-20 {
        letter-spacing: 0em;
      }

      .cls-9 {
        letter-spacing: -.02em;
      }
    </style>
  </defs>
  <g>
    <g>
      <path class="cls-7" d="M289.73,173.15c.74.69.91,1.85.32,2.68-.17.24-.37.41-.59.39l-.24-.02c-1.38-.09-2.48,1.15-2.22,2.51,1.83,9.8,5.09,19.76,11.46,27.76,8.84,11.09,20.6,19.17,33.37,25.05l20.82,9.58c.55.25,1.18.26,1.74.02,19.41-8.43,34.73-15.15,50.28-29.9,6.08-5.77,9.49-13.1,12.4-21.01.97-2.63,5.42-15.27,3.37-18.54-.46-.74-.47-1.67.09-2.35,6.31-7.72,8.36-18.55,7.65-28.17,0-.09-.02-.17-.03-.26-2-11.54-7.64-20.43-17.2-27.31-1.46-1.05-1.06-3.31.67-3.77l32.36-8.69c1.35-.36,2.67.65,2.67,2.04l.07,53.46c-.73,17.64-1.13,34.27-10.74,49.38-6.14,9.64-14.61,17.14-24.18,22.51l-11.8,6.63-.56.58-.46.3-44.63,23.91c-.62.33-1.37.33-2,0l-24.86-13.26c-6.7-3.57-12.83-6.45-19.62-10.13-.04-.02-.08-.04-.11-.06-4.51-2.77-8.08-5-11.99-7.21-36.41-20.64-36.82-49.78-35.97-88.44l.32-34.35c.05-10.64,9.97-3.38,20.23-.57l14.97,4.1c1.72.47,2.11,2.72.66,3.77-9.76,7.03-15.97,16.25-17.55,27.86-1.34,12.09,2.7,23.52,11.33,31.53Z"/>
      <g>
        <path class="cls-15" d="M354.8,110.98c-.18,1.19-1.83,1.43-2.33.34-.39-.86-.67-1.87-.99-2.82"/>
        <path class="cls-13" d="M354.8,110.98c-.18,1.19-1.83,1.43-2.33.34-.39-.86-.67-1.87-.99-2.82"/>
        <path class="cls-4" d="M354.8,110.98c-.18,1.19-1.83,1.43-2.33.34-.39-.86-.67-1.87-.99-2.82"/>
      </g>
      <g>
        <path class="cls-15" d="M336.67,157.57c-23.67-15.16-42.49-65.36-69.45-68.53-.62-.07-.48-11.58-.49-12.2l-.18-10.15c-.04-2.06,1.76-3.69,3.81-3.45l2.85.34c2,.24,3.77-1.31,3.81-3.33l.1-6.2c.03-1.87,1.57-3.37,3.44-3.35l3.28.03c1.76.02,3.24-1.3,3.43-3.05v-.14c.22-2,2.11-3.39,4.09-2.99l2.68.55c2.1.43,4.07-1.16,4.09-3.3l.12-10.7c.03-2.39,2.45-4.02,4.67-3.14,14.6,5.84,26.15,16.32,34.71,29.47,5.22,8.02,9.55,16.28,11.81,25.6l1.47,6.05c.82,3.36,5.56,3.52,6.57.21,2.45-8,5.24-15.81,9.26-23.3,8.64-16.13,21.01-29.6,37.39-37.77,2.24-1.12,4.88.47,4.94,2.97l.27,10.61c.05,2.11,1.99,3.67,4.06,3.26l2.69-.53c1.97-.39,3.85,1.01,4.05,3.01l.08.81c.17,1.73,1.62,3.06,3.36,3.08h1.41c1.83.03,3.32,1.49,3.38,3.32l.15,4.93c.06,1.99,1.81,3.51,3.8,3.28l4.44-.51c2.04-.23,3.82,1.37,3.8,3.42l-.1,10.88c0,.65.03,8.81-.62,8.85-15.67.98-53.86,50.98-68.88,55.3"/>
        <path class="cls-13" d="M336.67,157.57c-23.67-15.16-42.49-65.36-69.45-68.53-.62-.07-.48-11.58-.49-12.2l-.18-10.15c-.04-2.06,1.76-3.69,3.81-3.45l2.85.34c2,.24,3.77-1.31,3.81-3.33l.1-6.2c.03-1.87,1.57-3.37,3.44-3.35l3.28.03c1.76.02,3.24-1.3,3.43-3.05v-.14c.22-2,2.11-3.39,4.09-2.99l2.68.55c2.1.43,4.07-1.16,4.09-3.3l.12-10.7c.03-2.39,2.45-4.02,4.67-3.14,14.6,5.84,26.15,16.32,34.71,29.47,5.22,8.02,9.55,16.28,11.81,25.6l1.47,6.05c.82,3.36,5.56,3.52,6.57.21,2.45-8,5.24-15.81,9.26-23.3,8.64-16.13,21.01-29.6,37.39-37.77,2.24-1.12,4.88.47,4.94,2.97l.27,10.61c.05,2.11,1.99,3.67,4.06,3.26l2.69-.53c1.97-.39,3.85,1.01,4.05,3.01l.08.81c.17,1.73,1.62,3.06,3.36,3.08h1.41c1.83.03,3.32,1.49,3.38,3.32l.15,4.93c.06,1.99,1.81,3.51,3.8,3.28l4.44-.51c2.04-.23,3.82,1.37,3.8,3.42l-.1,10.88c0,.65.03,8.81-.62,8.85-15.67.98-53.86,50.98-68.88,55.3"/>
        <path class="cls-4" d="M336.67,157.57c-23.67-15.16-42.49-65.36-69.45-68.53-.62-.07-.48-11.58-.49-12.2l-.18-10.15c-.04-2.06,1.76-3.69,3.81-3.45l2.85.34c2,.24,3.77-1.31,3.81-3.33l.1-6.2c.03-1.87,1.57-3.37,3.44-3.35l3.28.03c1.76.02,3.24-1.3,3.43-3.05v-.14c.22-2,2.11-3.39,4.09-2.99l2.68.55c2.1.43,4.07-1.16,4.09-3.3l.12-10.7c.03-2.39,2.45-4.02,4.67-3.14,14.6,5.84,26.15,16.32,34.71,29.47,5.22,8.02,9.55,16.28,11.81,25.6l1.47,6.05c.82,3.36,5.56,3.52,6.57.21,2.45-8,5.24-15.81,9.26-23.3,8.64-16.13,21.01-29.6,37.39-37.77,2.24-1.12,4.88.47,4.94,2.97l.27,10.61c.05,2.11,1.99,3.67,4.06,3.26l2.69-.53c1.97-.39,3.85,1.01,4.05,3.01l.08.81c.17,1.73,1.62,3.06,3.36,3.08h1.41c1.83.03,3.32,1.49,3.38,3.32l.15,4.93c.06,1.99,1.81,3.51,3.8,3.28l4.44-.51c2.04-.23,3.82,1.37,3.8,3.42l-.1,10.88c0,.65.03,8.81-.62,8.85-15.67.98-53.86,50.98-68.88,55.3"/>
      </g>
      <path class="cls-7" d="M289.91,175.99c.75-.8,1.92-1.02,2.82-.4,3.84,2.66,8.87,4.69,13.13,5.91,9.96,2.84,19.7.93,27.97-4.76.95-.66,2.25-.44,2.93.51l14.77,20.69c.84,1.18,2.6,1.18,3.45,0l14.87-20.71c.7-.97,2.05-1.16,3.01-.44,13.79,10.25,33.73,5.53,44.57-4.23,1.33-1.2,3.5-.26,3.53,1.53.09,4.9-3.1,13.95-3.9,16.13-2.91,7.91-6.31,15.24-12.4,21.01-15.55,14.75-30.87,21.48-50.28,29.9-.55.24-1.19.24-1.74-.02l-20.82-9.58c-12.77-5.88-24.53-13.96-33.37-25.05-6.37-7.99-9.63-17.95-11.46-27.76-.25-1.36.84-2.6,2.22-2.51l.24.02c.17.01.32-.08.46-.22Z"/>
      <path class="cls-7" d="M355.18,113.2c22.39-22.78,58.68-26.96,88.95-31.44,1.32-.2,2.5.82,2.52,2.15l.05,5.9c0,1.03-.7,1.93-1.7,2.16l-28.21,6.49c-9.99,2.3-19.58,4.8-29.36,8.02-.05.02-.1.03-.14.05-16.62,6.52-24.94,14.42-31.95,29.95-.79,1.74-3.25,1.74-4.02-.01-4.81-10.97-11.79-19.94-22.47-25.39-9.08-4.63-18.47-7.72-28.42-10.04l-38.65-9.01c-.99-.23-1.7-1.12-1.7-2.14v-6c0-1.36,1.22-2.39,2.56-2.16,30.41,5.15,67.03,8.64,88.82,32.1.95,1.03,2.61.92,3.41-.23l.05-.07c.08-.11.16-.22.26-.31Z"/>
      <path class="cls-7" d="M373.41,146.29c0-1.46,1.46-2.45,2.84-1.97,4.39,1.55,8.74.25,9.97-6.37.41-2.2-.31-4.38-1.61-6.2-.86-1.2-.28-2.87,1.13-3.28,4.67-1.38,10.01-1.26,14.54,1.2,7.34,3.99,10.96,12.78,9.33,20.79-1.37,6.71-6.65,10.98-11.94,12.78-6.81,2.32-13.22.24-18.25-4.35-3.47-3.17-5.99-7.75-5.99-12.62Z"/>
      <path class="cls-7" d="M295.9,146.58c-.05-1.56,1.55-2.61,2.99-1.99,1.95.84,3.83,1.25,5.54.55,3.01-1.25,4.89-4.25,5.37-6.66.57-2.83-.14-5.01-1.8-7.33-.87-1.22-.24-2.96,1.22-3.29,6.58-1.51,13.47.19,18.24,4.97,5.09,5.1,6.78,13.43,3.43,20.84-2.77,6.12-9.61,11.09-17.65,10.5-9.34-.69-17.08-8.69-17.35-17.58Z"/>
      <rect class="cls-7" x="259.83" y="120.96" width="186.61" height="39.91" rx="2.54" ry="2.54"/>
      <rect class="cls-7" x="281.09" y="100.03" width="150.53" height="76.65" rx="2.54" ry="2.54"/>
      <rect class="cls-7" x="260.08" y="91.49" width="59.15" height="17.09" rx="2.54" ry="2.54"/>
      <rect class="cls-7" x="387.29" y="91.49" width="59.4" height="17.09" rx="2.54" ry="2.54"/>
      <rect class="cls-7" x="287.96" y="142.06" width="130.34" height="76.65" rx="2.54" ry="2.54"/>
    </g>
    <g id="nDI47z">
      <g>
        <g>
          <path class="cls-15" d="M355.44,111.02c-.18,1.19-1.83,1.43-2.33.34-.39-.86-.67-1.87-.99-2.82-2.04-6.04-6.03-10.86-9.79-16.08-10.6-14.74-26.36-25.4-43.64-33.23-.74-.34-1.61.13-1.74.93-.34,2.09-.31,4.11.11,5.93.09.38.37.69.74.84,15.65,6.41,29.39,15.5,41.01,27.8.1.1.18.22.24.35h0c.49,1.09-.69,2.16-1.73,1.59-22.43-12.38-43.16-15.56-68.84-18.57-.62-.07-1.09-.59-1.1-1.21l-.22-12.64c-.01-.75.64-1.34,1.38-1.25l7.7.91c.73.09,1.37-.48,1.38-1.21l.18-10.75c.01-.68.57-1.23,1.25-1.22l7.41.08c.64,0,1.18-.47,1.25-1.11l.47-4.48c.08-.73.76-1.23,1.48-1.09l7.6,1.55c.76.16,1.48-.42,1.49-1.2l.18-16.42c0-.84.84-1.44,1.63-1.16,16.02,5.56,28.57,16.55,37.71,30.59,5.22,8.02,9.55,16.28,11.81,25.6l3.38,13.92c.3,1.24,2.05,1.27,2.4.04,3.04-10.71,6.22-21.13,11.52-31.01,9.18-17.14,22.57-31.27,40.51-39.24.8-.36,1.71.23,1.73,1.11l.41,16.51c.02.77.72,1.33,1.48,1.19l7.56-1.48c.72-.14,1.4.37,1.47,1.1l.5,5.13c.06.63.59,1.11,1.22,1.12l5.44.05c.66,0,1.21.54,1.23,1.2l.29,9.37c.02.72.66,1.28,1.38,1.19l9.22-1.06c.74-.08,1.39.5,1.38,1.24l-.12,13.33c0,.65-.52,1.18-1.16,1.22-15.67.98-30.19,4.06-45.2,8.38-7.98,2.3-14.88,5.78-22.43,9.7-1.18.61-2.37-.81-1.56-1.86,7.4-9.51,16.76-16.65,27.2-21.95l12.44-6.32c.23-.12.43-.3.54-.53.61-1.34.7-3.57.36-5.47-.14-.79-.98-1.24-1.71-.93-17.57,7.49-32.11,18.3-43.71,32.78-2.42,3.02-9.59,13.74-10.42,19.18Z"/>
          <path class="cls-15" d="M355.44,111.02c-.18,1.19-1.83,1.43-2.33.34-.39-.86-.67-1.87-.99-2.82-2.04-6.04-6.03-10.86-9.79-16.08-10.6-14.74-26.36-25.4-43.64-33.23-.74-.34-1.61.13-1.74.93-.34,2.09-.31,4.11.11,5.93.09.38.37.69.74.84,15.65,6.41,29.39,15.5,41.01,27.8.1.1.18.22.24.35h0c.49,1.09-.69,2.16-1.73,1.59-22.43-12.38-43.16-15.56-68.84-18.57-.62-.07-1.09-.59-1.1-1.21l-.22-12.64c-.01-.75.64-1.34,1.38-1.25l7.7.91c.73.09,1.37-.48,1.38-1.21l.18-10.75c.01-.68.57-1.23,1.25-1.22l7.41.08c.64,0,1.18-.47,1.25-1.11l.47-4.48c.08-.73.76-1.23,1.48-1.09l7.6,1.55c.76.16,1.48-.42,1.49-1.2l.18-16.42c0-.84.84-1.44,1.63-1.16,16.02,5.56,28.57,16.55,37.71,30.59,5.22,8.02,9.55,16.28,11.81,25.6l3.38,13.92c.3,1.24,2.05,1.27,2.4.04,3.04-10.71,6.22-21.13,11.52-31.01,9.18-17.14,22.57-31.27,40.51-39.24.8-.36,1.71.23,1.73,1.11l.41,16.51c.02.77.72,1.33,1.48,1.19l7.56-1.48c.72-.14,1.4.37,1.47,1.1l.5,5.13c.06.63.59,1.11,1.22,1.12l5.44.05c.66,0,1.21.54,1.23,1.2l.29,9.37c.02.72.66,1.28,1.38,1.19l9.22-1.06c.74-.08,1.39.5,1.38,1.24l-.12,13.33c0,.65-.52,1.18-1.16,1.22-15.67.98-30.19,4.06-45.2,8.38-7.98,2.3-14.88,5.78-22.43,9.7-1.18.61-2.37-.81-1.56-1.86,7.4-9.51,16.76-16.65,27.2-21.95l12.44-6.32c.23-.12.43-.3.54-.53.61-1.34.7-3.57.36-5.47-.14-.79-.98-1.24-1.71-.93-17.57,7.49-32.11,18.3-43.71,32.78-2.42,3.02-9.59,13.74-10.42,19.18Z"/>
        </g>
        <g>
          <path class="cls-14" d="M412.02,228.74l-.15,29.6c0,.49.71,1.27.98,1.28l12.22.29c9.44.23,14.73,7.22,14.23,16.44-.16,2.99-2.22,5.72-5.35,5.77-6.19.11-3.39-11.32-6.95-11.44l-14.41-.48-.67,14.52c-.14,3.1-3.63,5.02-6.15,4.75s-5.21-2.65-5.31-5.59l-.44-13.61-12.85.52c-3.45,3.49.54,12.09-4.86,13.17-1.61.32-3.86-.87-4.82-2.38-3.06-4.84-2.88-10.15-.05-14.98,2.26-3.86,6.82-6.55,12.03-6.73l10.25-.35.35-21.57.13-3.21,11.8-6.63.02.64Z"/>
          <path class="cls-14" d="M308.01,236.1l.16,23.55c6.07.15,11.25-.3,16.44,1.59,7.42,2.71,9.99,12.31,6.64,19.15-.81,1.66-3.93,2.8-5.26,2.23-4.84-2.1-1.82-10.82-5.05-11.65-4.39-1.14-8.73-.82-12.85-.59l-.46,14.32c-.1,3.05-3.64,5.41-6.1,5.27-3.07-.17-5.23-2.96-5.31-6.14l-.34-13.44-14.52.26c-2.82,3.81.19,12-4.04,13.14-1.96.53-4.74-.38-5.76-2.15-2.61-4.52-2.78-9.25-.59-14.18,1.39-3.13,5.32-7.07,9.92-7.28l14.99-.69.1-30.64c3.92,2.22,9.1,3.46,12.04,7.24Z"/>
        </g>
      </g>
      <path class="cls-15" d="M260.71,111.28v-22.51c0-.57,68.51,14.23,79.97,28.95,8.33,10.69,9.55,17.09,13.35,15.86,1.76-.57,9.16-23.2,31.2-29.15,25.54-6.89,62.09-16.23,62.09-15.66.03,3.66-.04,31.05-.04,31.05-.76,1.01-9,6.04-13.47,12.9-6.11,9.39,1.2,17.37-2.82,32.54-2.24,8.44-8.81,17.88-18,21.72-15.09,6.3-26.34-7.03-37.77,0-9.6,5.9-14.29,15.69-21.19,16.97-8.26,1.53-4.89-13.81-19.59-16.68-10.99-2.15-15.28,6.93-28.05,4.29-9.33-1.93-15.25-8.47-18.06-11.57-11.49-12.68-11.99-29.22-12.13-33.88-.33-10.99,2.71-12.42.26-18-4.26-9.69-15.74-5.84-15.74-16.83Z"/>
      <path class="cls-18" d="M291.43,175.3c-.23.61-.69,2.15-1.35,2.1l-2.93-.19c1.73,10.65,4.97,21.72,11.93,30.44,8.84,11.09,20.6,19.17,33.37,25.05l21.68,9.98c19.83-8.61,35.38-15.31,51.15-30.28,6.08-5.77,9.49-13.1,12.4-21.01,1.11-3.01,6.76-19.08,2.07-19.31,7.43-7.8,9.83-19.55,9.03-29.88-2.23-13.08-9.13-22.78-21.1-29.99l39.57-10.63.07,56.22c-.73,17.64-1.13,34.27-10.74,49.38-6.14,9.64-14.61,17.14-24.18,22.51l-11.8,6.63-.54.52-.48.36-45.62,24.44-25.86-13.8c-6.71-3.58-17.78-9.47-19.68-10.16-1.06-1.17-8.12-5.02-12.04-7.24-36.41-20.64-36.82-49.78-35.97-88.44l.21-40.49,39.82,10.91c-11.97,7.3-19.6,17.33-21.38,30.39-1.39,12.58,3.04,24.45,12.4,32.49Z"/>
      <path class="cls-12" d="M291.43,175.3c3.96,3.4,10.04,5.96,15.06,7.39,10.64,3.04,21.04.64,29.65-5.99l17.73,24.83,17.9-24.93c14.54,12.64,37.23,6.77,47.98-4.51,4.69.23-.97,16.3-2.07,19.31-2.91,7.91-6.31,15.24-12.4,21.01-15.78,14.97-31.33,21.68-51.15,30.28l-21.68-9.98c-12.77-5.88-24.53-13.96-33.37-25.05-6.95-8.72-10.19-19.79-11.93-30.44l2.93.19c.66.04,1.12-1.49,1.35-2.1Z"/>
      <path class="cls-18" d="M355.67,114.54c23-23.54,60.77-27.31,91.59-31.96l.09,10.19-29.93,6.89c-10.02,2.31-19.63,4.81-29.43,8.04-18.32,7.17-26.57,16.01-34.08,34.84-4.83-13.18-12.2-24.03-24.43-30.27-9.08-4.63-18.47-7.72-28.42-10.04l-40.35-9.41v-10.35c31.74,5.56,71.09,8.58,93.2,34.58l1.75-2.51Z"/>
      <path class="cls-19" d="M373.99,143.9c4.12,2.44,8.75,2.68,11.15-1.46,2.29-3.97,1.55-8.83-2.23-12.06,5.27-2.47,12.03-2.96,17.58.05,7.34,3.99,10.96,12.78,9.33,20.79-1.37,6.71-6.65,10.98-11.94,12.78-6.81,2.32-13.22.24-18.25-4.35-4.21-3.84-7.01-9.76-5.63-15.75Z"/>
      <path class="cls-19" d="M296.38,143.98c2.89,1.57,5.77,2.94,8.27,1.9,3.01-1.25,4.89-4.25,5.37-6.66.76-3.76-.74-6.36-3.69-9.66,7.44-2.93,15.83-1.54,21.36,4,5.09,5.1,6.78,13.43,3.43,20.84-2.77,6.12-9.61,11.09-17.65,10.5-10.5-.78-18.98-10.79-17.09-20.94Z"/>
    </g>
  </g>
</svg>